<?xml version="1.0" encoding="UTF-8"?><svg id="Layer_2" xmlns="http://www.w3.org/2000/svg"
    xmlns:xlink="http://www.w3.org/1999/xlink" viewBox="0 0 521.93 200.65">
    <defs>
        <style>
            .cls-1 {
                fill: #fff;
            }

            .cls-2 {
                fill: #fcb222;
            }

            .cls-3 {
                fill: url(#linear-gradient);
            }
        </style>
        <linearGradient id="linear-gradient" x1="0" y1="128.18" x2="521.93" y2="128.18"
            gradientTransform="translate(0 254) scale(1 -1)" gradientUnits="userSpaceOnUse">
            <stop offset="0" stop-color="#0759b6" />
            <stop offset="1" stop-color="#22a4ed" />
        </linearGradient>
    </defs>
    <g id="Layer_2-2">
        <g id="Layer_1-2">
            <g>

                <g>
                    <g>
                        <g>
                            <path class="cls-1"
                                d="M438.21,106.9c-1.67-3.8-4.02-7.27-6.94-10.23-2.93-2.93-6.4-5.26-10.23-6.83-7.98-3.32-16.96-3.32-24.94,0-1.91,.82-3.75,1.79-5.49,2.92-1.72,1.16-3.33,2.47-4.82,3.92-.86,.87-1.67,1.79-2.42,2.76-.9,1.12-1.83,2.62-2.43,3.51-1.22,2.21-2.25,4.52-3.07,6.91-.12-4.63,.93-9.22,3.07-13.33v-29.01c.04-1.82-.7-3.56-2.06-4.78-2.62-2.61-6.86-2.61-9.48,0-1.31,1.24-2.02,2.97-1.98,4.78v25.76c-2.69-1.91-5.64-3.4-8.78-4.45-3.17-1.07-6.5-1.61-9.86-1.6-4.26-.02-8.49,.83-12.43,2.5-4.96,2.07-9.25,5.32-12.58,9.42-.09-2.22-.17-4.36-.25-6.35v54.16c-.07,13.21-2.4,15.54-2.4,15.54,1.31,2.12,2.87,4.07,4.66,5.83,2.95,2.91,6.42,5.24,10.23,6.87,3.95,1.69,8.21,2.53,12.51,2.46,8.5,.06,16.67-3.31,22.67-9.34,2.94-2.92,5.3-6.38,6.94-10.19l.37-.9,.34,.9c6.97,16.25,25.72,23.86,42.04,17.06,3.83-1.62,7.33-3.95,10.3-6.87,6-5.92,9.39-13.98,9.41-22.4v-26.7c.05-4.22-.76-8.42-2.4-12.32h.02Zm-70.86,38.87l-.11-.15c0,2.45-.5,4.86-1.5,7.09-.98,2.21-2.36,4.24-4.03,5.97-1.62,1.79-3.59,3.23-5.78,4.22-9.5,4-20.45-.45-24.46-9.96h0c-.97-2.26-1.46-4.67-1.45-7.11v-26.62c0-2.45,.52-4.88,1.53-7.13,.98-2.18,2.32-4.19,3.96-5.93,1.69-1.73,3.7-3.08,5.93-4,2.31-.93,4.76-1.41,7.25-1.41,10.19-.12,18.54,8.03,18.67,18.21v26.81h-.01Zm41.22,18.27h-.26c-2.48,0-4.94-.49-7.25-1.42-2.22-.92-4.25-2.27-5.93-4-1.67-1.74-3.02-3.76-3.99-5.97-1.02-2.22-1.53-4.64-1.5-7.09v-26.33c-.04-2.45,.45-4.88,1.41-7.13,4.02-9.47,14.94-13.91,24.43-9.93,2.23,.91,4.26,2.26,5.93,4,1.68,1.73,3.05,3.73,4.03,5.93,.98,2.25,1.49,4.68,1.5,7.13v26.55l.03-.15c0,10.16-8.24,18.41-18.4,18.41h0Z" />
                            <path class="cls-1"
                                d="M242.75,174.22c.19,.36,.42,.7,.69,1.02-.26-.31-.49-.66-.69-1.02Zm-.76-2.36c.04,.42,.13,.83,.27,1.23-.13-.4-.22-.81-.27-1.23Zm-6.07-82.32c-4.18-1.76-8.59-2.59-12.95-2.51-8.17,.12-16.19,3.35-22.22,9.35-3.04,2.95-5.45,6.48-7.1,10.38l-.3,.78c-.06-.27-.16-.54-.3-.78-1.68-3.8-4.05-7.25-6.98-10.19-6.02-6.01-14.17-9.36-22.67-9.34-4.3-.03-8.55,.82-12.51,2.5-3.5,1.51-6.69,3.64-9.44,6.27v-1.08c0-3.8-3.07-6.89-6.87-6.91h-48.28c-3.8,.2-6.73,3.44-6.54,7.24,.17,3.53,3.01,6.35,6.54,6.5h37.9l-44.47,59.73c-.87,1.18-1.34,2.61-1.35,4.07v4.67c.02,3.78,3.09,6.85,6.87,6.87h51.26c3.59,0,6.58-2.79,6.83-6.39,2.26,1.84,4.78,3.36,7.46,4.52,3.94,1.67,8.19,2.51,12.47,2.46,6.32,.11,12.52-1.74,17.74-5.3,4.17-2.79,7.63-6.53,10.08-10.91v9.3c-.11,3.71,2.82,6.81,6.53,6.91h.16c1.85-.02,3.53-.77,4.74-1.98s1.98-2.88,2.02-4.73v-24.27h-16.77c-1.33,0-2.63,.39-3.73,1.12-1.05,.78-1.83,1.86-2.24,3.1l-1.08,2.27c-3.1,6.69-9.84,10.93-17.21,10.83-2.5,.06-4.99-.37-7.32-1.27-2.24-.91-4.26-2.26-5.93-4-1.66-1.8-3-3.87-3.96-6.12-.96-2.21-1.45-4.6-1.42-7.02v-6.05h59.74v-20.5c-.04-2.45,.45-4.88,1.41-7.13,2.91-6.78,9.56-11.19,16.92-11.2h.29c2.47,0,4.92,.48,7.21,1.41,2.25,.91,4.28,2.26,5.97,4,1.65,1.74,2.98,3.74,3.96,5.93,1.01,2.25,1.54,4.68,1.54,7.13v-26.2c-1.87-1.38-3.88-2.54-6.02-3.48l.02,.02ZM95.73,163.24v-.07l35.88-48.54c-.17,1.47-.24,2.96-.22,4.44v26.55c-.02,4.28,.85,8.52,2.58,12.44,.79,1.8,1.74,3.54,2.83,5.19h-41.07Zm49.13-37.42v-6.76c0-2.45,.49-4.88,1.46-7.13,4.01-9.45,14.9-13.89,24.38-9.93,2.24,.9,4.26,2.26,5.94,4,1.69,1.71,3.04,3.73,3.99,5.93,1.01,2.25,1.53,4.68,1.53,7.13l.04,6.76h-37.34Z" />
                        </g>
                        <g>
                            <path class="cls-1"
                                d="M438.21,106.9c-1.67-3.8-4.02-7.27-6.94-10.23-2.93-2.93-6.4-5.26-10.23-6.83-7.98-3.32-16.96-3.32-24.94,0-1.91,.82-3.75,1.79-5.49,2.92-1.72,1.16-3.33,2.47-4.82,3.92-.86,.87-1.67,1.79-2.42,2.76-.9,1.12-1.83,2.62-2.43,3.51-1.22,2.21-2.25,4.52-3.07,6.91-.12-4.63,.93-9.22,3.07-13.33v-29.01c.04-1.82-.7-3.56-2.06-4.78-2.62-2.61-6.86-2.61-9.48,0-1.31,1.24-2.02,2.97-1.98,4.78v25.76c-2.69-1.91-5.64-3.4-8.78-4.45-3.17-1.07-6.5-1.61-9.86-1.6-4.26-.02-8.49,.83-12.43,2.5-4.96,2.07-9.25,5.32-12.58,9.42-.09-2.22-.17-4.36-.25-6.35v54.16c-.07,13.21-2.4,15.54-2.4,15.54,1.31,2.12,2.87,4.07,4.66,5.83,2.95,2.91,6.42,5.24,10.23,6.87,3.95,1.69,8.21,2.53,12.51,2.46,8.5,.06,16.67-3.31,22.67-9.34,2.94-2.92,5.3-6.38,6.94-10.19l.37-.9,.34,.9c6.97,16.25,25.72,23.86,42.04,17.06,3.83-1.62,7.33-3.95,10.3-6.87,6-5.92,9.39-13.98,9.41-22.4v-26.7c.05-4.22-.76-8.42-2.4-12.32h.02Zm-70.86,38.87l-.11-.15c0,2.45-.5,4.86-1.5,7.09-.98,2.21-2.36,4.24-4.03,5.97-1.62,1.79-3.59,3.23-5.78,4.22-9.5,4-20.45-.45-24.46-9.96h0c-.97-2.26-1.46-4.67-1.45-7.11v-26.62c0-2.45,.52-4.88,1.53-7.13,.98-2.18,2.32-4.19,3.96-5.93,1.69-1.73,3.7-3.08,5.93-4,2.31-.93,4.76-1.41,7.25-1.41,10.19-.12,18.54,8.03,18.67,18.21v26.81h-.01Zm41.22,18.27h-.26c-2.48,0-4.94-.49-7.25-1.42-2.22-.92-4.25-2.27-5.93-4-1.67-1.74-3.02-3.76-3.99-5.97-1.02-2.22-1.53-4.64-1.5-7.09v-26.33c-.04-2.45,.45-4.88,1.41-7.13,4.02-9.47,14.94-13.91,24.43-9.93,2.23,.91,4.26,2.26,5.93,4,1.68,1.73,3.05,3.73,4.03,5.93,.98,2.25,1.49,4.68,1.5,7.13v26.55l.03-.15c0,10.16-8.24,18.41-18.4,18.41h0Z" />
                            <path class="cls-1"
                                d="M242.75,174.22c.19,.36,.42,.7,.69,1.02-.26-.31-.49-.66-.69-1.02Zm-.76-2.36c.04,.42,.13,.83,.27,1.23-.13-.4-.22-.81-.27-1.23Zm-6.07-82.32c-4.18-1.76-8.59-2.59-12.95-2.51-8.17,.12-16.19,3.35-22.22,9.35-3.04,2.95-5.45,6.48-7.1,10.38l-.3,.78c-.06-.27-.16-.54-.3-.78-1.68-3.8-4.05-7.25-6.98-10.19-6.02-6.01-14.17-9.36-22.67-9.34-4.3-.03-8.55,.82-12.51,2.5-3.5,1.51-6.69,3.64-9.44,6.27v-1.08c0-3.8-3.07-6.89-6.87-6.91h-48.28c-3.8,.2-6.73,3.44-6.54,7.24,.17,3.53,3.01,6.35,6.54,6.5h37.9l-44.47,59.73c-.87,1.18-1.34,2.61-1.35,4.07v4.67c.02,3.78,3.09,6.85,6.87,6.87h51.26c3.59,0,6.58-2.79,6.83-6.39,2.26,1.84,4.78,3.36,7.46,4.52,3.94,1.67,8.19,2.51,12.47,2.46,6.32,.11,12.52-1.74,17.74-5.3,4.17-2.79,7.63-6.53,10.08-10.91v9.3c-.11,3.71,2.82,6.81,6.53,6.91h.16c1.85-.02,3.53-.77,4.74-1.98s1.98-2.88,2.02-4.73v-24.27h-16.77c-1.33,0-2.63,.39-3.73,1.12-1.05,.78-1.83,1.86-2.24,3.1l-1.08,2.27c-3.1,6.69-9.84,10.93-17.21,10.83-2.5,.06-4.99-.37-7.32-1.27-2.24-.91-4.26-2.26-5.93-4-1.66-1.8-3-3.87-3.96-6.12-.96-2.21-1.45-4.6-1.42-7.02v-6.05h59.74v-20.5c-.04-2.45,.45-4.88,1.41-7.13,2.91-6.78,9.56-11.19,16.92-11.2h.29c2.47,0,4.92,.48,7.21,1.41,2.25,.91,4.28,2.26,5.97,4,1.65,1.74,2.98,3.74,3.96,5.93,1.01,2.25,1.54,4.68,1.54,7.13v-26.2c-1.87-1.38-3.88-2.54-6.02-3.48l.02,.02ZM95.73,163.24v-.07l35.88-48.54c-.17,1.47-.24,2.96-.22,4.44v26.55c-.02,4.28,.85,8.52,2.58,12.44,.79,1.8,1.74,3.54,2.83,5.19h-41.07Zm49.13-37.42v-6.76c0-2.45,.49-4.88,1.46-7.13,4.01-9.45,14.9-13.89,24.38-9.93,2.24,.9,4.26,2.26,5.94,4,1.69,1.71,3.04,3.73,3.99,5.93,1.01,2.25,1.53,4.68,1.53,7.13l.04,6.76h-37.34Z" />
                        </g>
                        <g>
                            <path class="cls-1"
                                d="M438.21,106.9c-1.67-3.8-4.02-7.27-6.94-10.23-2.93-2.93-6.4-5.26-10.23-6.83-7.98-3.32-16.96-3.32-24.94,0-1.91,.82-3.75,1.79-5.49,2.92-1.72,1.16-3.33,2.47-4.82,3.92-.86,.87-1.67,1.79-2.42,2.76-.9,1.12-1.83,2.62-2.43,3.51-1.22,2.21-2.25,4.52-3.07,6.91-.12-4.63,.93-9.22,3.07-13.33v-29.01c.04-1.82-.7-3.56-2.06-4.78-2.62-2.61-6.86-2.61-9.48,0-1.31,1.24-2.02,2.97-1.98,4.78v25.76c-2.69-1.91-5.64-3.4-8.78-4.45-3.17-1.07-6.5-1.61-9.86-1.6-4.26-.02-8.49,.83-12.43,2.5-4.96,2.07-9.25,5.32-12.58,9.42-.09-2.22-.17-4.36-.25-6.35v54.16c-.07,13.21-2.4,15.54-2.4,15.54,1.31,2.12,2.87,4.07,4.66,5.83,2.95,2.91,6.42,5.24,10.23,6.87,3.95,1.69,8.21,2.53,12.51,2.46,8.5,.06,16.67-3.31,22.67-9.34,2.94-2.92,5.3-6.38,6.94-10.19l.37-.9,.34,.9c6.97,16.25,25.72,23.86,42.04,17.06,3.83-1.62,7.33-3.95,10.3-6.87,6-5.92,9.39-13.98,9.41-22.4v-26.7c.05-4.22-.76-8.42-2.4-12.32h.02Zm-70.86,38.87l-.11-.15c0,2.45-.5,4.86-1.5,7.09-.98,2.21-2.36,4.24-4.03,5.97-1.62,1.79-3.59,3.23-5.78,4.22-9.5,4-20.45-.45-24.46-9.96h0c-.97-2.26-1.46-4.67-1.45-7.11v-26.62c0-2.45,.52-4.88,1.53-7.13,.98-2.18,2.32-4.19,3.96-5.93,1.69-1.73,3.7-3.08,5.93-4,2.31-.93,4.76-1.41,7.25-1.41,10.19-.12,18.54,8.03,18.67,18.21v26.81h-.01Zm41.22,18.27h-.26c-2.48,0-4.94-.49-7.25-1.42-2.22-.92-4.25-2.27-5.93-4-1.67-1.74-3.02-3.76-3.99-5.97-1.02-2.22-1.53-4.64-1.5-7.09v-26.33c-.04-2.45,.45-4.88,1.41-7.13,4.02-9.47,14.94-13.91,24.43-9.93,2.23,.91,4.26,2.26,5.93,4,1.68,1.73,3.05,3.73,4.03,5.93,.98,2.25,1.49,4.68,1.5,7.13v26.55l.03-.15c0,10.16-8.24,18.41-18.4,18.41h0Z" />
                            <path class="cls-1"
                                d="M242.75,174.22c.19,.36,.42,.7,.69,1.02-.26-.31-.49-.66-.69-1.02Zm-.76-2.36c.04,.42,.13,.83,.27,1.23-.13-.4-.22-.81-.27-1.23Zm-6.07-82.32c-4.18-1.76-8.59-2.59-12.95-2.51-8.17,.12-16.19,3.35-22.22,9.35-3.04,2.95-5.45,6.48-7.1,10.38l-.3,.78c-.06-.27-.16-.54-.3-.78-1.68-3.8-4.05-7.25-6.98-10.19-6.02-6.01-14.17-9.36-22.67-9.34-4.3-.03-8.55,.82-12.51,2.5-3.5,1.51-6.69,3.64-9.44,6.27v-1.08c0-3.8-3.07-6.89-6.87-6.91h-48.28c-3.8,.2-6.73,3.44-6.54,7.24,.17,3.53,3.01,6.35,6.54,6.5h37.9l-44.47,59.73c-.87,1.18-1.34,2.61-1.35,4.07v4.67c.02,3.78,3.09,6.85,6.87,6.87h51.26c3.59,0,6.58-2.79,6.83-6.39,2.26,1.84,4.78,3.36,7.46,4.52,3.94,1.67,8.19,2.51,12.47,2.46,6.32,.11,12.52-1.74,17.74-5.3,4.17-2.79,7.63-6.53,10.08-10.91v9.3c-.11,3.71,2.82,6.81,6.53,6.91h.16c1.85-.02,3.53-.77,4.74-1.98s1.98-2.88,2.02-4.73v-24.27h-16.77c-1.33,0-2.63,.39-3.73,1.12-1.05,.78-1.83,1.86-2.24,3.1l-1.08,2.27c-3.1,6.69-9.84,10.93-17.21,10.83-2.5,.06-4.99-.37-7.32-1.27-2.24-.91-4.26-2.26-5.93-4-1.66-1.8-3-3.87-3.96-6.12-.96-2.21-1.45-4.6-1.42-7.02v-6.05h59.74v-20.5c-.04-2.45,.45-4.88,1.41-7.13,2.91-6.78,9.56-11.19,16.92-11.2h.29c2.47,0,4.92,.48,7.21,1.41,2.25,.91,4.28,2.26,5.97,4,1.65,1.74,2.98,3.74,3.96,5.93,1.01,2.25,1.54,4.68,1.54,7.13v-26.2c-1.87-1.38-3.88-2.54-6.02-3.48l.02,.02ZM95.73,163.24v-.07l35.88-48.54c-.17,1.47-.24,2.96-.22,4.44v26.55c-.02,4.28,.85,8.52,2.58,12.44,.79,1.8,1.74,3.54,2.83,5.19h-41.07Zm49.13-37.42v-6.76c0-2.45,.49-4.88,1.46-7.13,4.01-9.45,14.9-13.89,24.38-9.93,2.24,.9,4.26,2.26,5.94,4,1.69,1.71,3.04,3.73,3.99,5.93,1.01,2.25,1.53,4.68,1.53,7.13l.04,6.76h-37.34Z" />
                        </g>
                    </g>
                    <g>
                        <path class="cls-2"
                            d="M259.55,41.15c0,1.11-.16,2.17-.45,3.19-.5,1.73-1.4,3.29-2.59,4.57-1.78,1.94-4.23,3.26-6.97,3.61v-8.8c0-.8-.65-1.45-1.45-1.45s-1.45,.65-1.45,1.45v8.8c-1.83-.23-3.54-.9-4.99-1.9-1.36-.92-2.5-2.12-3.35-3.5-1.06-1.74-1.67-3.78-1.67-5.97,0-.93,.11-1.84,.31-2.72,.38-1.68,1.11-3.22,2.11-4.55,.36-.47,.74-.91,1.15-1.32l5.73-5.73c.59-.58,1.12-1.22,1.56-1.91,.85-1.28,1.46-2.74,1.78-4.31,.15-.77,.23-1.56,.23-2.37l.02,.02c.1,.16,.66,1.02,1.48,2.33,.71,1.16,1.62,2.66,2.56,4.3,.93,1.63,1.9,3.38,2.74,5.07,.25,.51,.49,1.02,.71,1.5,.14,.32,.28,.64,.42,.95,.02,.04,.03,.07,.05,.11,0,.02,.02,.06,.03,.08,.07,.18,.15,.35,.21,.48,.67,1.56,1.17,2.88,1.3,3.68v.07c.34,1.34,.54,2.79,.54,4.32h0Z" />
                        <path class="cls-2"
                            d="M305.37,41.15c0,.88-.1,1.73-.28,2.55-.36,1.54-1.01,2.95-1.9,4.18-1.82,2.5-4.61,4.23-7.83,4.64v-8.8c0-.18-.03-.36-.1-.51-.2-.55-.74-.94-1.36-.94s-1.12,.36-1.33,.87c-.09,.18-.13,.38-.13,.59v8.79c-3.44-.43-6.39-2.39-8.18-5.16-.82-1.27-1.4-2.72-1.65-4.27-.11-.63-.17-1.27-.17-1.93,0-1.48,.26-2.9,.74-4.21,.58-1.57,1.47-2.98,2.6-4.16,.07-.07,.14-.15,.21-.22l5.09-5.1,.64-.64c.96-.95,1.75-2.06,2.35-3.28,.78-1.6,1.22-3.4,1.22-5.31l.02,.02c.18,.28,1.85,2.85,3.72,6.07,.88,1.52,1.81,3.18,2.64,4.82,.14,.27,.28,.55,.41,.81,.25,.51,.49,1.02,.71,1.5,.14,.32,.28,.64,.42,.95,.03,.07,.06,.12,.08,.19,.07,.18,.15,.35,.21,.48,.21,.5,.4,.97,.59,1.4,.37,.97,.64,1.78,.72,2.32v.02c.17,.69,.31,1.4,.4,2.13,.08,.71,.13,1.44,.13,2.19h.03Z" />
                        <g>
                            <path class="cls-1"
                                d="M324.92,84.26c-.25-6.45-2.78-12.44-7.17-16.89l-.06-.06c-3.1-3.14-6.72-5.61-10.76-7.35-4.16-1.76-8.57-2.65-13.1-2.65-2.22,0-4.45,.21-6.62,.65-13.03,1.95-21.04,13.25-21.37,13.72-1.4,1.98-3.81,6.69-4.29,16.04l-.05,1.21-.06,1.29c-.52,13.06-.88,33.89,.33,58.92,.28,5.93,2.28,11.44,5.78,15.94,.73,.93,1.5,1.83,2.35,2.74,3.09,3.12,6.71,5.55,10.77,7.24,4.16,1.74,8.56,2.61,13.07,2.61s8.9-.88,13.08-2.62c4.06-1.74,7.69-4.16,10.81-7.21,1.84-1.8,3.47-3.83,4.84-6.01,.79-.98,2.64-4.56,2.71-16.53v-54.21l-.26-6.83h0Zm-37.58,75.45c-2.04-.82-3.86-2.03-5.4-3.6-1.55-1.61-2.78-3.46-3.68-5.5-.91-2.02-1.36-4.17-1.36-6.41v-53.21c.09-9.29,7.72-16.85,17.01-16.85h.17c2.2,.02,4.35,.46,6.4,1.31,2.06,.83,3.88,2.05,5.4,3.6,1.52,1.61,2.76,3.46,3.68,5.46,.89,2.03,1.35,4.21,1.36,6.45v53.02c.03,2.21-.41,4.41-1.3,6.44-2.6,6.3-8.69,10.36-15.52,10.36h-.69c-2.09,0-4.15-.37-6.06-1.08h-.01Z" />
                            <path class="cls-1"
                                d="M248.33,177.69c-4.43-.19-7.93-3.74-8.03-8.08V82.9l-.55,.46c-1.53,1.21-3.41,1.87-5.33,1.87-.28,0-.55-.01-.83-.04-2.21-.21-4.21-1.27-5.65-2.98l-.13-.16c-1.38-1.76-1.99-3.95-1.72-6.17,.27-2.23,1.4-4.21,3.16-5.59l2.44-2.01,11.43-8.79s.05-.05,.08-.07l.08-.08,.06-.04c.09-.07,.16-.13,.22-.17,.11-.09,.21-.17,.32-.24,.09-.07,.16-.12,.21-.15l.09-.06,.33-.34h.28c.07-.05,.15-.08,.23-.12,.11-.06,.25-.12,.39-.18,.11-.05,.22-.1,.33-.14l.08-.03c.14-.05,.26-.09,.38-.13,.07-.03,.15-.05,.22-.07,.09-.03,.23-.06,.37-.1,.22-.06,.45-.1,.68-.14,.17-.03,.34-.06,.51-.07l.26-.02c.24,0,.39-.02,.56-.02h.17c4.23,.11,7.77,3.29,8.27,7.4v104.59c-.03,2.24-.92,4.33-2.49,5.9-1.57,1.57-3.66,2.45-5.9,2.47h-.52Z" />
                        </g>
                    </g>
                </g>
            </g>
        </g>
    </g>
</svg>
