<?xml version="1.0" encoding="utf-8"?>
<!-- Generator: Adobe Illustrator 16.0.4, SVG Export Plug-In . SVG Version: 6.00 Build 0)  -->
<!DOCTYPE svg PUBLIC "-//W3C//DTD SVG 1.1//EN" "http://www.w3.org/Graphics/SVG/1.1/DTD/svg11.dtd">
<svg version="1.1" id="Layer_1" xmlns="http://www.w3.org/2000/svg" xmlns:xlink="http://www.w3.org/1999/xlink" x="0px" y="0px"
	 width="146.355px" height="47.955px" viewBox="0 0 146.355 47.955" enable-background="new 0 0 146.355 47.955"
	 xml:space="preserve">
<g>
	<g>
		<g>
			<path fill="#FFFFFF" d="M145.301,18.875c-0.705-1.602-1.656-2.997-2.846-4.19c-1.189-1.187-2.584-2.125-4.188-2.805
				c-1.604-0.678-3.307-1.02-5.102-1.02c-1.848,0-3.564,0.342-5.139,1.02c-0.787,0.339-1.529,0.74-2.225,1.205
				c-0.701,0.469-1.357,1.003-1.967,1.6c-0.377,0.37-0.727,0.761-1.051,1.17c-0.363,0.457-0.764,1.068-0.992,1.439
				c-0.281,0.456-0.957,1.861-1.254,2.828c0.041-1.644,0.281-4.096,1.254-5.472V2.768c0-0.776-0.279-1.431-0.84-1.965
				C120.396,0.268,119.75,0,119.021,0c-0.777,0-1.43,0.268-1.969,0.803c-0.531,0.534-0.801,1.189-0.801,1.965v10.569
				c-1.117-0.778-2.322-1.386-3.605-1.824c-1.285-0.436-2.637-0.654-4.045-0.654c-1.799,0-3.496,0.342-5.1,1.02
				c-1.605,0.679-3,1.618-4.195,2.805c-1.186,1.194-2.139,2.588-2.836,4.19c-0.053,0.12-0.1,0.242-0.15,0.364
				c-0.047-0.122-0.094-0.244-0.146-0.364c-0.705-1.602-1.656-2.997-2.846-4.19c-1.189-1.187-2.586-2.125-4.188-2.805
				c-1.604-0.678-3.307-1.02-5.102-1.02c-1.848,0-3.564,0.342-5.139,1.02c-1.584,0.679-2.979,1.618-4.191,2.805
				c-1.213,1.194-2.164,2.588-2.842,4.19c-0.049,0.115-0.092,0.23-0.137,0.344c-0.047-0.114-0.092-0.229-0.141-0.344
				c-0.701-1.602-1.65-2.997-2.84-4.19c-1.191-1.187-2.588-2.125-4.193-2.805c-1.604-0.678-3.301-1.02-5.104-1.02
				c-1.842,0-3.557,0.342-5.137,1.02c-1.578,0.679-2.977,1.618-4.186,2.805c-1.221,1.194-2.166,2.588-2.848,4.19
				c-0.043,0.106-0.082,0.214-0.125,0.32c-0.043-0.106-0.084-0.214-0.131-0.32c-0.707-1.602-1.656-2.997-2.848-4.19
				c-1.188-1.187-2.582-2.125-4.184-2.805c-1.605-0.678-3.309-1.02-5.104-1.02c-1.85,0-3.564,0.342-5.137,1.02
				c-1.467,0.628-2.764,1.488-3.91,2.552V13.99c0-1.557-1.262-2.822-2.82-2.822H3.246c-1.557,0-2.82,1.265-2.82,2.822
				c0,1.559,1.264,2.82,2.82,2.82h15.541L0.557,41.356C0.195,41.843,0,42.433,0,43.038v1.841c0,1.558,1.264,2.822,2.822,2.822
				h21.047c1.488,0,2.705-1.153,2.812-2.614c0.932,0.743,1.967,1.364,3.109,1.848c1.605,0.684,3.299,1.021,5.102,1.021
				c2.723,0,5.15-0.726,7.287-2.187c1.727-1.176,3.092-2.639,4.084-4.389v3.805c0,0.778,0.264,1.436,0.805,1.968
				c0.531,0.537,1.189,0.803,1.967,0.803c0.73,0,1.369-0.266,1.93-0.803c0.561-0.532,0.838-1.189,0.838-1.968v-9.879h-0.01
				c0-0.002,0.01-0.013,0.01-0.013s-6.137,0-6.912,0c-0.58,0-1.109,0.154-1.566,0.472c-0.463,0.316-0.793,0.744-0.982,1.275
				l-0.453,0.93c-0.631,1.365-1.566,2.443-2.809,3.244c-1.238,0.803-2.633,1.201-4.188,1.201c-1.023,0-2.004-0.191-2.955-0.579
				c-0.941-0.39-1.758-0.935-2.439-1.64c-0.682-0.703-1.227-1.52-1.641-2.443c-0.41-0.924-0.617-1.893-0.617-2.916v-2.476h17.715
				h1.309h5.539v-8.385c0-1.015,0.191-1.99,0.582-2.912c0.389-0.922,0.936-1.74,1.645-2.444c0.699-0.703,1.514-1.249,2.441-1.641
				c0.918-0.388,1.92-0.581,2.982-0.581c1.023,0,2.01,0.193,2.955,0.581c0.945,0.393,1.762,0.938,2.439,1.641
				c0.682,0.704,1.225,1.521,1.641,2.444c0.412,0.922,0.621,1.896,0.621,2.912v21.208c0,0.778,0.266,1.436,0.799,1.968
				c0.535,0.537,1.191,0.803,1.971,0.803c0.729,0,1.371-0.266,1.934-0.803c0.553-0.532,0.834-1.189,0.834-1.968v-3.803
				c0.588,1.01,1.283,1.932,2.1,2.749c1.189,1.189,2.586,2.124,4.191,2.804c1.602,0.684,3.303,1.021,5.102,1.021
				c1.795,0,3.498-0.337,5.102-1.021c1.602-0.68,3.01-1.614,4.227-2.804c1.211-1.19,2.162-2.589,2.842-4.189
				c0.037-0.095,0.074-0.19,0.109-0.286c0.039,0.096,0.074,0.191,0.113,0.286c0.678,1.601,1.625,2.999,2.842,4.189
				c1.213,1.189,2.607,2.124,4.189,2.804c1.574,0.684,3.293,1.021,5.139,1.021c1.795,0,3.5-0.337,5.105-1.021
				c1.6-0.68,2.994-1.614,4.184-2.804c1.191-1.19,2.141-2.589,2.848-4.189c0.051-0.12,0.098-0.239,0.146-0.36
				c0.049,0.121,0.094,0.24,0.146,0.36c0.703,1.601,1.652,2.999,2.842,4.189c1.189,1.189,2.586,2.124,4.191,2.804
				c1.604,0.684,3.303,1.021,5.102,1.021c1.795,0,3.498-0.337,5.102-1.021c1.604-0.68,3.01-1.614,4.227-2.804
				c1.211-1.19,2.16-2.589,2.842-4.189c0.678-1.606,1.02-3.306,1.02-5.104v-10.86C146.355,22.182,146.002,20.479,145.301,18.875z
				 M7.064,42.06l14.758-19.874c-0.078,0.587-0.121,1.184-0.121,1.791v10.86c0,1.799,0.35,3.498,1.059,5.104
				c0.328,0.752,0.719,1.458,1.156,2.119c-0.016,0-0.031-0.001-0.047-0.001H7.064z M42.541,26.817H27.24v-2.841
				c0-1.015,0.189-1.99,0.58-2.912c0.391-0.922,0.936-1.74,1.645-2.444c0.697-0.703,1.516-1.249,2.438-1.641
				c0.922-0.388,1.92-0.581,2.99-0.581c1.02,0,2.002,0.193,2.949,0.581c0.949,0.393,1.764,0.938,2.441,1.641
				c0.682,0.704,1.225,1.521,1.641,2.444c0.414,0.922,0.617,1.896,0.617,2.912V26.817z M91.688,34.837
				c0,1.023-0.189,1.992-0.582,2.916c-0.389,0.924-0.936,1.74-1.637,2.443c-0.705,0.705-1.523,1.25-2.445,1.64
				c-0.92,0.388-1.92,0.579-2.984,0.579c-1.023,0-2.004-0.191-2.955-0.579c-0.945-0.39-1.758-0.935-2.439-1.64
				c-0.682-0.703-1.229-1.52-1.641-2.443s-0.617-1.893-0.617-2.916v-10.86c0-1.015,0.191-1.99,0.582-2.912
				c0.387-0.922,0.934-1.74,1.639-2.444c0.701-0.703,1.52-1.249,2.441-1.641c0.922-0.388,1.92-0.581,2.99-0.581
				c1.018,0,2.004,0.193,2.947,0.581c0.951,0.393,1.764,0.938,2.443,1.641c0.68,0.704,1.223,1.521,1.641,2.444
				c0.412,0.922,0.617,1.896,0.617,2.912V34.837z M116.252,34.837c0,1.023-0.203,1.992-0.617,2.916
				c-0.412,0.924-0.961,1.74-1.641,2.443c-0.68,0.705-1.492,1.25-2.443,1.64c-0.943,0.388-1.93,0.579-2.949,0.579
				c-1.07,0-2.066-0.191-2.988-0.579c-0.924-0.39-1.74-0.935-2.439-1.64c-0.707-0.703-1.252-1.52-1.643-2.443
				s-0.584-1.893-0.584-2.916v-10.86c0-1.015,0.211-1.99,0.619-2.912c0.416-0.922,0.961-1.74,1.641-2.444
				c0.682-0.703,1.496-1.249,2.439-1.641c0.951-0.388,1.934-0.581,2.955-0.581c1.068,0,2.062,0.193,2.986,0.581
				c0.926,0.393,1.738,0.938,2.443,1.641c0.703,0.704,1.252,1.521,1.641,2.444c0.389,0.922,0.58,1.896,0.58,2.912V34.837z
				 M140.816,34.837c0,1.023-0.193,1.992-0.58,2.916c-0.393,0.924-0.939,1.74-1.641,2.443c-0.705,0.705-1.523,1.25-2.443,1.64
				c-0.922,0.388-1.92,0.579-2.986,0.579c-1.021,0-2.004-0.191-2.955-0.579c-0.943-0.39-1.758-0.935-2.438-1.64
				c-0.682-0.703-1.23-1.52-1.643-2.443s-0.619-1.893-0.619-2.916v-10.86c0-1.015,0.193-1.99,0.584-2.912
				c0.387-0.922,0.934-1.74,1.639-2.444c0.703-0.703,1.518-1.249,2.441-1.641c0.924-0.388,1.92-0.581,2.99-0.581
				c1.02,0,2.004,0.193,2.949,0.581c0.949,0.393,1.764,0.938,2.441,1.641c0.682,0.704,1.225,1.521,1.643,2.444
				c0.412,0.922,0.617,1.896,0.617,2.912V34.837z"/>
		</g>
	</g>
</g>
</svg>
